<svg width="61" height="60" viewBox="0 0 61 60" fill="none" xmlns="http://www.w3.org/2000/svg">
<rect x="12" y="7" width="37" height="13" stroke="black" stroke-width="2" stroke-linejoin="round"/>
<rect x="8.00145" y="24" width="45" height="13" stroke="black" stroke-width="2" stroke-linejoin="round"/>
<rect x="5.00305" y="41" width="51" height="13" stroke="black" stroke-width="2" stroke-linejoin="round"/>
<rect x="13" y="8" width="37" height="11" fill="white"/>
<rect x="9.00145" y="25" width="45" height="11" fill="white"/>
<rect x="6" y="42" width="51" height="11" fill="white"/>
<path d="M50 10.5L12 10.5" stroke="black"/>
<path d="M9 27.75L54 27.75" stroke="black"/>
<path d="M6 44.375H57" stroke="black"/>
<line x1="50" y1="13.5" x2="12" y2="13.5" stroke="black"/>
<line x1="54.0014" y1="30.5" x2="9.00145" y2="30.5" stroke="black"/>
<line x1="57.0031" y1="47.5" x2="6.00306" y2="47.5" stroke="black"/>
<path d="M50 16.5L12 16.5" stroke="black"/>
<path d="M9 33.75H54" stroke="black"/>
<path d="M6.00305 50.75H57.0031" stroke="black"/>
<path d="M37 18V11H39.5H42V18L39.5 14.5L37 18Z" fill="black" stroke="black" stroke-width="0.5"/>
<path d="M42 35V28H44.5H47V35L44.5 31.5L42 35Z" fill="black" stroke="black" stroke-width="0.5"/>
<path d="M47 52V45H49.5H52V52L49.5 48.5L47 52Z" fill="black" stroke="black" stroke-width="0.5"/>
</svg>
